<svg width="76" height="76" viewBox="0 0 76 76" fill="none" xmlns="http://www.w3.org/2000/svg">
<rect width="76" height="76" fill="white"/>
<rect width="76" height="76" fill="#FFF5D2"/>
<path d="M41.2842 54.6445H34.7139C34.5645 54.6445 34.4176 54.6827 34.2871 54.7555C34.1567 54.8283 34.047 54.9332 33.9685 55.0603C33.89 55.1875 33.8454 55.3325 33.8388 55.4818C33.8321 55.631 33.8638 55.7795 33.9307 55.913L34.5194 57.0887C34.8084 57.6712 35.2547 58.1612 35.8077 58.5034C36.3606 58.8455 36.9983 59.0261 37.6486 59.0247H38.3494C38.999 59.027 39.6364 58.8478 40.1896 58.5073C40.7428 58.1668 41.1899 57.6785 41.4804 57.0974L42.0691 55.9218C42.1361 55.7881 42.1677 55.6395 42.161 55.4901C42.1543 55.3407 42.1095 55.1955 42.0308 55.0684C41.9521 54.9412 41.8422 54.8363 41.7115 54.7636C41.5808 54.691 41.4337 54.653 41.2842 54.6533V54.6445Z" fill="#FFE661"/>
<path d="M37.9991 24.8594C38.4638 24.8594 38.9095 24.6748 39.238 24.3462C39.5666 24.0177 39.7512 23.572 39.7512 23.1073V18.7272C39.7512 18.2625 39.5666 17.8168 39.238 17.4883C38.9095 17.1597 38.4638 16.9751 37.9991 16.9751C37.5345 16.9751 37.0888 17.1597 36.7602 17.4883C36.4317 17.8168 36.2471 18.2625 36.2471 18.7272V23.1073C36.2471 23.572 36.4317 24.0177 36.7602 24.3462C37.0888 24.6748 37.5345 24.8594 37.9991 24.8594Z" fill="#FFE661"/>
<path d="M54.1033 23.6468C53.7748 23.3183 53.3292 23.1338 52.8646 23.1338C52.4 23.1338 51.9545 23.3183 51.6259 23.6468L48.53 26.7444C48.3627 26.9061 48.2292 27.0994 48.1374 27.3131C48.0455 27.5269 47.9972 27.7568 47.9952 27.9894C47.9932 28.2221 48.0375 28.4528 48.1256 28.6681C48.2137 28.8834 48.3438 29.0791 48.5083 29.2436C48.6728 29.4081 48.8684 29.5382 49.0837 29.6263C49.2991 29.7144 49.5298 29.7587 49.7624 29.7567C49.9951 29.7547 50.225 29.7063 50.4387 29.6145C50.6525 29.5227 50.8458 29.3892 51.0074 29.2219L54.1033 26.1242C54.4318 25.7956 54.6163 25.3501 54.6163 24.8855C54.6163 24.4209 54.4318 23.9753 54.1033 23.6468V23.6468Z" fill="#FFE661"/>
<path d="M57.2718 38H53.7677C53.303 38 52.8574 38.1846 52.5288 38.5132C52.2002 38.8417 52.0156 39.2874 52.0156 39.7521C52.0156 40.2167 52.2002 40.6624 52.5288 40.991C52.8574 41.3195 53.303 41.5041 53.7677 41.5041H57.2718C57.7365 41.5041 58.1822 41.3195 58.5107 40.991C58.8393 40.6624 59.0239 40.2167 59.0239 39.7521C59.0239 39.2874 58.8393 38.8417 58.5107 38.5132C58.1822 38.1846 57.7365 38 57.2718 38Z" fill="#FFE661"/>
<path d="M27.4693 26.7448L24.3716 23.6471C24.0412 23.3279 23.5986 23.1513 23.1392 23.1553C22.6798 23.1593 22.2404 23.3436 21.9155 23.6684C21.5907 23.9933 21.4064 24.4327 21.4024 24.8921C21.3984 25.3515 21.575 25.7941 21.8942 26.1245L24.9918 29.2222C25.3223 29.5413 25.7649 29.7179 26.2242 29.7139C26.6836 29.71 27.1231 29.5257 27.4479 29.2008C27.7728 28.876 27.957 28.4366 27.961 27.9772C27.965 27.5178 27.7884 27.0752 27.4693 26.7448Z" fill="#FFE661"/>
<path d="M22.2308 38H18.7267C18.262 38 17.8164 38.1846 17.4878 38.5132C17.1592 38.8417 16.9746 39.2874 16.9746 39.7521C16.9746 40.2167 17.1592 40.6624 17.4878 40.991C17.8164 41.3195 18.262 41.5041 18.7267 41.5041H22.2308C22.6955 41.5041 23.1411 41.3195 23.4697 40.991C23.7983 40.6624 23.9829 40.2167 23.9829 39.7521C23.9829 39.2874 23.7983 38.8417 23.4697 38.5132C23.1411 38.1846 22.6955 38 22.2308 38Z" fill="#FFE661"/>
<path d="M37.9995 27.4873C35.5783 27.4909 33.2212 28.2661 31.2705 29.7002C29.3198 31.1344 27.8769 33.153 27.1513 35.4629C26.4258 37.7728 26.4552 40.2539 27.2355 42.5459C28.0158 44.8379 29.5063 46.8216 31.4905 48.209C31.6068 48.2897 31.7018 48.3974 31.7674 48.5228C31.833 48.6482 31.8673 48.7876 31.8672 48.9291V50.2642C31.8672 50.7289 32.0518 51.1745 32.3804 51.5031C32.709 51.8317 33.1546 52.0163 33.6193 52.0163H42.3797C42.8443 52.0163 43.29 51.8317 43.6186 51.5031C43.9471 51.1745 44.1317 50.7289 44.1317 50.2642V48.9274C44.1317 48.7859 44.1659 48.6464 44.2315 48.521C44.2971 48.3956 44.3921 48.288 44.5084 48.2073C46.4977 46.8228 47.993 44.8394 48.7765 42.5459C49.5601 40.2525 49.5909 37.7687 48.8645 35.4565C48.1382 33.1443 46.6926 31.1244 44.7383 29.691C42.784 28.2575 40.4231 27.4855 37.9995 27.4873V27.4873Z" fill="#FFE661"/>
</svg>
