<svg width="76" height="76" viewBox="0 0 76 76" fill="none" xmlns="http://www.w3.org/2000/svg">
<rect width="76" height="76" fill="white"/>
<rect width="76" height="76" fill="#FFEBF6"/>
<path d="M52.2016 43.5797L42.0039 39.9195V28.9648C42.0039 27.8998 41.5808 26.8784 40.8278 26.1254C40.0747 25.3723 39.0533 24.9492 37.9883 24.9492C36.9233 24.9492 35.9019 25.3723 35.1488 26.1254C34.3957 26.8784 33.9727 27.8998 33.9727 28.9648V45.9529L32.3142 43.6681C32.0207 43.3145 31.6522 43.0306 31.2356 42.8368C30.8189 42.6431 30.3644 42.5443 29.9048 42.5477L27.9171 42.5858C27.4034 42.5851 26.8982 42.7179 26.4513 42.9713C26.0044 43.2246 25.631 43.5898 25.3677 44.031C25.1045 44.4722 24.9605 44.9743 24.9499 45.4879C24.9392 46.0015 25.0623 46.5091 25.3069 46.9609L32.8061 60.5598C33.059 61.0243 33.4325 61.412 33.8873 61.6819C34.3421 61.9519 34.8613 62.0942 35.3902 62.0938H48.2161C48.8253 62.0868 49.4177 61.8925 49.9127 61.5373C50.4077 61.182 50.7813 60.683 50.9829 60.108L54.0327 46.6958C54.0504 46.6229 54.0592 46.548 54.0588 46.473C54.1016 45.8551 53.944 45.2399 53.6095 44.7187C53.2749 44.1975 52.7812 43.7981 52.2016 43.5797V43.5797Z" fill="#FEC5E3"/>
<path d="M26.152 37.7992C26.3901 37.6859 26.6036 37.5267 26.7802 37.3309C26.9568 37.135 27.0931 36.9063 27.1813 36.6577C27.2695 36.4092 27.3078 36.1457 27.2942 35.8824C27.2805 35.619 27.2151 35.3609 27.1017 35.1228C26.3372 33.5126 25.9441 31.7512 25.9512 29.9688C25.9512 26.7737 27.2204 23.7096 29.4797 21.4503C31.7389 19.1911 34.8031 17.9219 37.9981 17.9219C41.1931 17.9219 44.2573 19.1911 46.5165 21.4503C48.7758 23.7096 50.045 26.7737 50.045 29.9688C50.0505 31.7539 49.6546 33.5174 48.8865 35.1288C48.6598 35.61 48.6334 36.1615 48.813 36.6621C48.9925 37.1628 49.3634 37.5717 49.8442 37.7992C50.3268 38.0161 50.8744 38.0384 51.373 37.8614C51.8716 37.6845 52.2827 37.322 52.5206 36.8495C53.5418 34.6999 54.0681 32.3486 54.0606 29.9688C54.0606 25.7087 52.3683 21.6232 49.356 18.6108C46.3437 15.5985 42.2581 13.9063 37.9981 13.9062C33.7381 13.9063 29.6525 15.5985 26.6402 18.6108C23.6279 21.6232 21.9356 25.7087 21.9356 29.9688C21.9297 32.3513 22.4587 34.7047 23.4836 36.8555C23.7136 37.3333 24.1233 37.7007 24.6233 37.8775C25.1232 38.0543 25.6728 38.0262 26.152 37.7992V37.7992Z" fill="#FEC5E3"/>
</svg>
