<svg width="76" height="76" viewBox="0 0 76 76" fill="none" xmlns="http://www.w3.org/2000/svg">
<rect width="76" height="76" fill="white"/>
<rect width="76" height="76" fill="#EBF8FF"/>
<path d="M25.1168 44.3115C25.3414 45.2829 25.8248 46.1753 26.5157 46.894C27.2067 47.6127 28.0793 48.131 29.041 48.3938L38.1417 50.9004C38.3138 50.9473 38.4947 50.9518 38.669 50.9135C38.8432 50.8753 39.0056 50.7954 39.1423 50.6806L52.2951 39.6441C52.4318 39.5295 52.5387 39.3834 52.6067 39.2184C52.6746 39.0535 52.7016 38.8745 52.6852 38.6968L51.8106 29.2878C51.7172 28.2953 51.3569 27.3467 50.7679 26.5424C50.1788 25.7382 49.3831 25.1085 48.465 24.72L23.5221 14.1224C23.346 14.0479 23.164 13.9885 22.9779 13.9447C22.8651 13.9183 22.7468 13.9282 22.6399 13.9728C22.5329 14.0175 22.4427 14.0946 22.3821 14.1934C22.3214 14.2921 22.2933 14.4074 22.3019 14.523C22.3104 14.6386 22.355 14.7485 22.4295 14.8373L35.3926 30.2861C35.5171 30.4351 35.6788 30.5486 35.8612 30.6152C36.0437 30.6818 36.2404 30.6992 36.4317 30.6654C37.3893 30.4966 38.3759 30.6484 39.2384 31.0974C40.1009 31.5464 40.7912 32.2675 41.2021 33.1488C41.6131 34.03 41.7217 35.0223 41.5113 35.9716C41.3008 36.921 40.783 37.7743 40.0381 38.3994C39.2932 39.0244 38.3629 39.3862 37.3914 39.4286C36.42 39.471 35.4616 39.1917 34.6651 38.634C33.8686 38.0762 33.2783 37.2712 32.9859 36.3439C32.6935 35.4165 32.7153 34.4185 33.0479 33.5048C33.1143 33.3223 33.1314 33.1255 33.0975 32.9342C33.0636 32.743 32.9799 32.5641 32.8547 32.4156L19.8917 16.9668C19.8172 16.878 19.7167 16.815 19.6043 16.7865C19.492 16.758 19.3735 16.7656 19.2658 16.8082C19.158 16.8508 19.0663 16.9263 19.0038 17.0238C18.9413 17.1214 18.9111 17.2362 18.9174 17.3519C18.9282 17.5427 18.9551 17.7323 18.9979 17.9186L25.1168 44.3115Z" fill="#84D5FF"/>
<path d="M41.2209 51.8199C41.0322 51.9783 40.902 52.1952 40.8508 52.4362C40.7996 52.6771 40.8304 52.9283 40.9384 53.1497L44.9252 61.337C44.9987 61.4878 45.1056 61.6198 45.2378 61.7231C45.3699 61.8264 45.5239 61.8982 45.688 61.9331C45.852 61.968 46.0219 61.9651 46.1847 61.9245C46.3474 61.884 46.4988 61.8069 46.6274 61.6991L61.8545 48.922C61.9829 48.8142 62.0852 48.6785 62.1533 48.5252C62.2215 48.372 62.2539 48.2052 62.248 48.0376C62.2422 47.8699 62.1982 47.7058 62.1194 47.5577C62.0406 47.4096 61.9291 47.2814 61.7934 47.1828L54.4228 41.8349C54.2235 41.6901 53.9816 41.6161 53.7354 41.6247C53.4892 41.6333 53.253 41.7239 53.0642 41.8822L41.2209 51.8199Z" fill="#84D5FF"/>
</svg>
